<?xml version="1.0" encoding="UTF-8" standalone="no"?>
<svg
   xmlns:dc="http://purl.org/dc/elements/1.1/"
   xmlns:cc="http://creativecommons.org/ns#"
   xmlns:rdf="http://www.w3.org/1999/02/22-rdf-syntax-ns#"
   xmlns:svg="http://www.w3.org/2000/svg"
   xmlns="http://www.w3.org/2000/svg"
   xmlns:sodipodi="http://sodipodi.sourceforge.net/DTD/sodipodi-0.dtd"
   xmlns:inkscape="http://www.inkscape.org/namespaces/inkscape"
   sodipodi:docname="rysunek.svg"
   inkscape:version="1.0 (4035a4fb49, 2020-05-01)"
   id="svg440"
   version="1.1"
   viewBox="0 0 52.916665 52.916668"
   height="200"
   width="200">
  <defs
     id="defs434" />
  <sodipodi:namedview
     inkscape:window-maximized="1"
     inkscape:window-y="-8"
     inkscape:window-x="-8"
     inkscape:window-height="1017"
     inkscape:window-width="1920"
     inkscape:showpageshadow="false"
     showborder="true"
     units="px"
     showgrid="false"
     inkscape:document-rotation="0"
     inkscape:current-layer="layer1"
     inkscape:document-units="mm"
     inkscape:cy="64.170559"
     inkscape:cx="163.49036"
     inkscape:zoom="1.979899"
     inkscape:pageshadow="2"
     inkscape:pageopacity="0.0"
     borderopacity="1.0"
     bordercolor="#666666"
     pagecolor="#ffffff"
     id="base" />
  <metadata
     id="metadata437">
    <rdf:RDF>
      <cc:Work
         rdf:about="">
        <dc:format>image/svg+xml</dc:format>
        <dc:type
           rdf:resource="http://purl.org/dc/dcmitype/StillImage" />
        <dc:title></dc:title>
      </cc:Work>
    </rdf:RDF>
  </metadata>
  <g
     id="layer1"
     inkscape:groupmode="layer"
     inkscape:label="Warstwa 1">
    <path
       id="path68"
       d="m 40.019188,45.15944 c -3.954991,-1.849204 -8.289575,-2.820134 -13.074876,-2.820134 -4.785325,0 -9.423954,1.060083 -13.509099,2.909593 3.954983,1.847631 8.441471,2.887945 13.227431,2.887945 4.791833,0.0063 9.27728,-1.12787 13.358471,-2.972908 z"
       stroke-linejoin="bevel"
       stroke-width="0.724192"
       stroke="#20201e"
       fill="#ffffff" />
    <path
       id="path70"
       d="m 39.725795,36.860083 -0.0023,-0.0047 c -3.555144,-1.465585 -7.691731,-2.357253 -13.06251,-2.357253 -5.377279,0 -9.534794,0.892247 -13.194199,2.361749 0,0 0.399205,3.3925 0.415739,4.514316 0.01974,1.263477 -0.333611,3.852515 -0.333611,3.852515 4.084856,-1.84951 8.612268,-2.889183 13.397593,-2.889183 4.693516,0 9.463717,0.963247 13.074876,2.820134 -0.593286,-1.186556 -0.293393,-8.292825 -0.293393,-8.292825 z"
       stroke-linejoin="bevel"
       stroke-width="0.724192"
       stroke="#20201e"
       fill="#ffffff" />
    <path
       id="path72"
       d="m 13.563002,45.205071 c 3.844871,-1.828544 8.597935,-2.86755 13.383276,-2.86755 4.693524,0 8.633798,0.661794 13.074876,2.820134 -0.178895,-0.498831 -0.298609,-2.048486 -0.337449,-2.610671 -3.93082,-1.460236 -8.266094,-2.289145 -12.72806,-2.289145 -4.511434,0 -9.050383,0.874148 -13.12248,2.36431 -0.08475,0.58023 -0.267296,2.575191 -0.267296,2.575191 z"
       stroke-linejoin="bevel"
       stroke-width="0.724192"
       stroke="#20201e"
       fill="#ffffff" />
    <path
       id="path74"
       d="m 48.546696,15.231604 c -0.950543,-0.55518 -2.171639,-0.23429 -2.726837,0.71754 -0.476869,0.8156 -0.306888,1.827237 0.349525,2.450239 -2.716029,3.292217 -7.67345,9.298787 -8.869812,10.755898 -0.351453,-0.156933 -0.715632,-0.305932 -1.094443,-0.445039 0.107591,-1.117383 0.892585,-9.643677 1.308989,-14.178648 0.904701,0.02069 1.739414,-0.578409 1.975608,-1.491736 0.275669,-1.066716 -0.36418,-2.154838 -1.431249,-2.430802 -1.065143,-0.276004 -2.153202,0.36449 -2.42956,1.430585 -0.236837,0.913638 0.201819,1.842549 1.003433,2.263052 -1.964134,4.457972 -5.77524,13.109447 -5.784756,13.145295 -0.0016,0.0086 -6.18e-4,0.01754 -0.0023,0.02639 -0.346338,-0.04104 -0.702287,-0.0777 -1.065143,-0.10759 -0.07198,-0.479728 -1.706275,-10.508802 -2.558117,-15.732243 0.979248,-0.229191 1.708163,-1.105571 1.708163,-2.1548385 0,-1.2230678 -0.991285,-2.2159289 -2.214997,-2.2159289 -1.223713,0 -2.215601,0.9929229 -2.215601,2.2159289 0,1.0492475 0.730913,1.9256055 1.709494,2.1548385 -0.848074,5.200024 -2.472182,15.161129 -2.557459,15.723768 -0.378834,0.03055 -0.749373,0.06657 -1.111,0.109181 -0.0023,-0.01269 -0.0016,-0.02357 -0.0055,-0.03501 -0.0089,-0.03595 -3.820708,-8.688545 -5.783534,-13.145953 0.80029,-0.420213 1.238319,-1.348751 1.002125,-2.263052 -0.275692,-1.066074 -1.364417,-1.706609 -2.430155,-1.430584 -1.065746,0.276045 -1.706283,1.364085 -1.429988,2.429827 0.236837,0.91455 1.070241,1.51304 1.97495,1.492047 0.416373,4.529894 1.198861,13.038385 1.309004,14.173422 -0.371824,0.135613 -0.729605,0.280461 -1.074674,0.432938 C 14.858136,27.607106 9.9570597,21.666725 7.2604468,18.399814 7.9181211,17.776828 8.0875073,16.765172 7.6118837,15.949572 7.057351,14.997721 5.8355652,14.676831 4.8843806,15.232032 3.9338304,15.786878 3.612281,17.00802 4.1668372,17.95985 c 0.476869,0.814936 1.4420653,1.165417 2.3073154,0.899296 1.6216019,4.223352 6.8559214,17.815879 7.0560644,18.003647 3.608034,-1.468467 7.756917,-2.361757 13.13292,-2.361757 5.373497,0 9.521096,0.892256 13.129647,2.360449 0.198647,-0.188144 5.502077,-13.668804 7.165604,-18.002339 0.865854,0.266121 1.830408,-0.08436 2.306674,-0.899296 0.534599,-0.951188 0.215118,-2.172308 -0.736709,-2.727114 z"
       stroke-width="0.724192"
       stroke="#20201e"
       fill="#ffffff" />
    <polygon
       transform="matrix(0.20722592,0,0,0.20722592,-78.631907,24.313988)"
       id="polygon76"
       points="508.4514,68.1252 517.4178,63.6578 508.4514,59.1903 499.5166,63.6578 " />
    <polygon
       transform="matrix(0.20722592,0,0,0.20722592,-78.631907,24.313988)"
       id="polygon78"
       points="472.4917,72.4039 480.6085,66.5522 471.0759,63.5948 462.959,69.4466 " />
    <polygon
       transform="matrix(0.20722592,0,0,0.20722592,-78.631907,24.313988)"
       id="polygon80"
       points="544.4427,72.4668 536.3259,66.6151 545.8585,63.6263 553.9753,69.478 " />
  </g>
</svg>
